<svg width="19" height="19" viewBox="0 0 19 19" fill="none" xmlns="http://www.w3.org/2000/svg">
<path d="M9.5 0.3125C4.42637 0.3125 0.3125 4.42637 0.3125 9.5C0.3125 14.5736 4.42637 18.6875 9.5 18.6875C14.5736 18.6875 18.6875 14.5736 18.6875 9.5C18.6875 4.42637 14.5736 0.3125 9.5 0.3125ZM9.5 17.1289C5.2877 17.1289 1.87109 13.7123 1.87109 9.5C1.87109 5.2877 5.2877 1.87109 9.5 1.87109C13.7123 1.87109 17.1289 5.2877 17.1289 9.5C17.1289 13.7123 13.7123 17.1289 9.5 17.1289ZM9.61484 6.20439C10.7018 6.20439 11.44 6.89756 11.5221 7.91475C11.5282 8.00088 11.6 8.0665 11.6861 8.0665H12.8489C12.9022 8.0665 12.9453 8.02344 12.9453 7.97012C12.9453 6.19209 11.5426 4.94727 9.60869 4.94727C7.35488 4.94727 6.05469 6.46895 6.05469 8.9832V10.0558C6.05469 12.5516 7.35488 14.0527 9.60869 14.0527C11.5364 14.0527 12.9453 12.8469 12.9453 11.1529C12.9453 11.0996 12.9022 11.0565 12.8489 11.0565H11.6841C11.5979 11.0565 11.5282 11.1222 11.52 11.2063C11.4339 12.1517 10.6977 12.8018 9.61279 12.8018C8.27363 12.8018 7.51895 11.8194 7.51895 10.0619V8.9832C7.521 7.19902 8.27773 6.20439 9.61484 6.20439Z" fill="white"/>
</svg>
